<mxfile host="app.diagrams.net" agent="Mozilla/5.0 (Windows NT 10.0; Win64; x64) AppleWebKit/537.36 (KHTML, like Gecko) Chrome/128.0.0.0 Safari/537.36" version="24.7.7">
  <diagram name="Página-1" id="aDe_4f3jgg1Yqz-UMU1N">
    <mxGraphModel dx="1400" dy="1865" grid="1" gridSize="10" guides="1" tooltips="1" connect="1" arrows="1" fold="1" page="1" pageScale="1" pageWidth="827" pageHeight="1169" math="0" shadow="0">
      <root>
        <mxCell id="0" />
        <mxCell id="1" parent="0" />
        <mxCell id="ehtGAwbhDUbNyiEBxqf6-1" value="&lt;p style=&quot;margin-bottom: 0cm&quot;&gt;&lt;font style=&quot;font-size: 10pt&quot; size=&quot;2&quot;&gt;&lt;span style=&quot;background: #ffffff&quot;&gt;Crear una aplicación de venta objetos 2ª mano&lt;/span&gt;&lt;/font&gt;&lt;/p&gt;&lt;p style=&quot;margin-bottom: 0cm&quot;&gt;&lt;span style=&quot;background-color: rgb(255, 255, 255); font-size: 10pt;&quot;&gt;Tipos&amp;nbsp;&lt;/span&gt;&lt;span style=&quot;background-color: rgb(255, 255, 255); font-size: 10pt;&quot;&gt;de usuario:&lt;/span&gt;&lt;/p&gt;&lt;p style=&quot;margin-bottom: 0cm&quot;&gt;&lt;font style=&quot;font-size: 10pt&quot; size=&quot;2&quot;&gt;&lt;span style=&quot;background: #ffffff&quot;&gt;1- Los que ofertan articulos para vender&lt;/span&gt;&lt;/font&gt;&lt;/p&gt;&lt;p style=&quot;margin-bottom: 0cm&quot;&gt;&lt;font style=&quot;font-size: 10pt&quot; size=&quot;2&quot;&gt;&lt;span style=&quot;background: #ffffff&quot;&gt;2- Los que buscan y demandan articulos.&lt;/span&gt;&lt;/font&gt;&lt;/p&gt;&lt;p style=&quot;margin-bottom: 0cm&quot;&gt;&lt;span style=&quot;background-color: rgb(255, 255, 255); font-size: 10pt;&quot;&gt;Usuarios:&lt;/span&gt;&lt;br&gt;&lt;/p&gt;&lt;p style=&quot;margin-bottom: 0cm&quot;&gt;&lt;font style=&quot;font-size: 10pt&quot; size=&quot;2&quot;&gt;&lt;span style=&quot;background: #ffffff&quot;&gt;TODOS los usuarios tienen que estar logeados&amp;nbsp;&lt;/span&gt;&lt;/font&gt;&lt;span style=&quot;background-color: rgb(255, 255, 255); font-size: 10pt;&quot;&gt;para&amp;nbsp;&lt;/span&gt;&lt;span style=&quot;background-color: rgb(255, 255, 255); font-size: 10pt;&quot;&gt;acceder a los servicios tanto de venta como de compra.&lt;/span&gt;&lt;/p&gt;&lt;p style=&quot;margin-bottom: 0cm&quot;&gt;&lt;font style=&quot;font-size: 10pt&quot; size=&quot;2&quot;&gt;&lt;span style=&quot;background: #ffffff&quot;&gt;Hay 2 tipos de ususarios de tipo vendedor:&lt;/span&gt;&lt;/font&gt;&lt;/p&gt;&lt;p style=&quot;margin-bottom: 0cm&quot;&gt;&lt;font style=&quot;font-size: 10pt&quot; size=&quot;2&quot;&gt;&lt;span style=&quot;background: #ffffff&quot;&gt;1 Normal (cuenta gratuita)&lt;/span&gt;&lt;/font&gt;&lt;/p&gt;&lt;p style=&quot;margin-bottom: 0cm&quot;&gt;&lt;font style=&quot;font-size: 10pt&quot; size=&quot;2&quot;&gt;&lt;span style=&quot;background: #ffffff&quot;&gt;2 Premium (Cuenta de pago)&lt;/span&gt;&lt;/font&gt;&lt;/p&gt;&lt;p style=&quot;margin-bottom: 0cm&quot;&gt;&lt;font style=&quot;font-size: 10pt&quot; size=&quot;2&quot;&gt;&lt;span style=&quot;background: #ffffff&quot;&gt;Usuarios normales con cuenta gratis:&lt;/span&gt;&lt;/font&gt;&lt;/p&gt;&lt;p style=&quot;margin-bottom: 0cm&quot;&gt;&lt;font style=&quot;font-size: 10pt&quot; size=&quot;2&quot;&gt;&lt;span style=&quot;background: #ffffff&quot;&gt;&lt;span style=&quot;white-space: pre;&quot;&gt;&#x9;&lt;/span&gt;Maximo de 5 objetos&amp;nbsp;&lt;/span&gt;&lt;/font&gt;&lt;span style=&quot;background-color: rgb(255, 255, 255); font-size: 10pt;&quot;&gt;para&amp;nbsp;&lt;/span&gt;&lt;span style=&quot;background-color: rgb(255, 255, 255); font-size: 10pt;&quot;&gt;vender y máximo de 3 servicios que ofrecer.&lt;/span&gt;&lt;/p&gt;&lt;p style=&quot;margin-bottom: 0cm&quot;&gt;&lt;font style=&quot;font-size: 10pt&quot; size=&quot;2&quot;&gt;&lt;span style=&quot;background: #ffffff&quot;&gt;Usuarios con cuenta de pago:&amp;nbsp;&lt;/span&gt;&lt;/font&gt;&lt;/p&gt;&lt;p style=&quot;margin-bottom: 0cm&quot;&gt;&lt;font style=&quot;font-size: 10pt&quot; size=&quot;2&quot;&gt;&lt;span style=&quot;background: #ffffff&quot;&gt;&lt;span style=&quot;white-space: pre;&quot;&gt;&#x9;&lt;/span&gt;Pueden vender articulos de forma ilimitada.&lt;/span&gt;&lt;/font&gt;&lt;/p&gt;&lt;p style=&quot;margin-bottom: 0cm&quot;&gt;&lt;font style=&quot;font-size: 10pt&quot; size=&quot;2&quot;&gt;&lt;span style=&quot;background: #ffffff&quot;&gt;Como poner a la venta articulos de 2ª mano:&lt;/span&gt;&lt;/font&gt;&lt;/p&gt;&lt;p style=&quot;margin-bottom: 0cm&quot;&gt;&lt;font style=&quot;font-size: 10pt&quot; size=&quot;2&quot;&gt;&lt;span style=&quot;background: #ffffff&quot;&gt;Los usuarios una vez logeados tienen que introducir los datos del articulo.&lt;/span&gt;&lt;/font&gt;&lt;/p&gt;&lt;p style=&quot;margin-bottom: 0cm&quot;&gt;&lt;font style=&quot;font-size: 10pt&quot; size=&quot;2&quot;&gt;&lt;span style=&quot;background: #ffffff&quot;&gt;Formas de pago aceptadas:&amp;nbsp;&lt;/span&gt;&lt;/font&gt;&lt;/p&gt;&lt;p style=&quot;margin-bottom: 0cm&quot;&gt;&lt;font style=&quot;font-size: 10pt&quot; size=&quot;2&quot;&gt;&lt;span style=&quot;background: #ffffff&quot;&gt;&lt;span style=&quot;white-space: pre;&quot;&gt;&#x9;&lt;/span&gt;Tarjeta, Paypal, Stripe.&lt;/span&gt;&lt;/font&gt;&lt;/p&gt;&lt;div&gt;&lt;br/&gt;&lt;/div&gt;" style="text;html=1;align=left;verticalAlign=middle;whiteSpace=wrap;rounded=0;" vertex="1" parent="1">
          <mxGeometry x="40" y="-1169" width="650" height="530" as="geometry" />
        </mxCell>
        <mxCell id="ehtGAwbhDUbNyiEBxqf6-16" style="edgeStyle=orthogonalEdgeStyle;rounded=0;orthogonalLoop=1;jettySize=auto;html=1;" edge="1" parent="1" source="ehtGAwbhDUbNyiEBxqf6-2" target="ehtGAwbhDUbNyiEBxqf6-17">
          <mxGeometry relative="1" as="geometry">
            <mxPoint x="300" y="-510" as="targetPoint" />
          </mxGeometry>
        </mxCell>
        <mxCell id="ehtGAwbhDUbNyiEBxqf6-2" value="Usuario" style="shape=umlActor;verticalLabelPosition=bottom;verticalAlign=top;html=1;outlineConnect=0;" vertex="1" parent="1">
          <mxGeometry x="180" y="-540" width="30" height="60" as="geometry" />
        </mxCell>
        <mxCell id="ehtGAwbhDUbNyiEBxqf6-7" style="edgeStyle=orthogonalEdgeStyle;rounded=0;orthogonalLoop=1;jettySize=auto;html=1;startArrow=classic;startFill=1;endArrow=none;endFill=0;dashed=1;" edge="1" parent="1" source="ehtGAwbhDUbNyiEBxqf6-6" target="ehtGAwbhDUbNyiEBxqf6-17">
          <mxGeometry relative="1" as="geometry">
            <mxPoint x="430" y="-510" as="targetPoint" />
          </mxGeometry>
        </mxCell>
        <mxCell id="ehtGAwbhDUbNyiEBxqf6-6" value="logearse en la app" style="ellipse;whiteSpace=wrap;html=1;" vertex="1" parent="1">
          <mxGeometry x="490" y="-550" width="120" height="80" as="geometry" />
        </mxCell>
        <mxCell id="ehtGAwbhDUbNyiEBxqf6-8" value="&amp;lt;&amp;lt;include&amp;gt;&amp;gt;" style="text;html=1;align=center;verticalAlign=middle;resizable=0;points=[];autosize=1;strokeColor=none;fillColor=none;" vertex="1" parent="1">
          <mxGeometry x="400" y="-510" width="90" height="30" as="geometry" />
        </mxCell>
        <mxCell id="ehtGAwbhDUbNyiEBxqf6-17" value="añadir formas de pago" style="ellipse;whiteSpace=wrap;html=1;" vertex="1" parent="1">
          <mxGeometry x="290" y="-550" width="120" height="80" as="geometry" />
        </mxCell>
        <mxCell id="ehtGAwbhDUbNyiEBxqf6-19" style="edgeStyle=orthogonalEdgeStyle;rounded=0;orthogonalLoop=1;jettySize=auto;html=1;endArrow=block;endFill=0;" edge="1" parent="1" source="ehtGAwbhDUbNyiEBxqf6-18" target="ehtGAwbhDUbNyiEBxqf6-2">
          <mxGeometry relative="1" as="geometry" />
        </mxCell>
        <mxCell id="ehtGAwbhDUbNyiEBxqf6-22" style="edgeStyle=orthogonalEdgeStyle;rounded=0;orthogonalLoop=1;jettySize=auto;html=1;" edge="1" parent="1" source="ehtGAwbhDUbNyiEBxqf6-18" target="ehtGAwbhDUbNyiEBxqf6-23">
          <mxGeometry relative="1" as="geometry">
            <mxPoint x="280" y="-360" as="targetPoint" />
          </mxGeometry>
        </mxCell>
        <mxCell id="ehtGAwbhDUbNyiEBxqf6-18" value="Comprador" style="shape=umlActor;verticalLabelPosition=bottom;verticalAlign=top;html=1;outlineConnect=0;" vertex="1" parent="1">
          <mxGeometry x="130" y="-390" width="30" height="60" as="geometry" />
        </mxCell>
        <mxCell id="ehtGAwbhDUbNyiEBxqf6-21" style="edgeStyle=orthogonalEdgeStyle;rounded=0;orthogonalLoop=1;jettySize=auto;html=1;endArrow=block;endFill=0;" edge="1" parent="1" source="ehtGAwbhDUbNyiEBxqf6-20" target="ehtGAwbhDUbNyiEBxqf6-2">
          <mxGeometry relative="1" as="geometry" />
        </mxCell>
        <mxCell id="ehtGAwbhDUbNyiEBxqf6-26" style="edgeStyle=orthogonalEdgeStyle;rounded=0;orthogonalLoop=1;jettySize=auto;html=1;" edge="1" parent="1" source="ehtGAwbhDUbNyiEBxqf6-20" target="ehtGAwbhDUbNyiEBxqf6-27">
          <mxGeometry relative="1" as="geometry">
            <mxPoint x="290" y="-220" as="targetPoint" />
          </mxGeometry>
        </mxCell>
        <mxCell id="ehtGAwbhDUbNyiEBxqf6-41" style="edgeStyle=orthogonalEdgeStyle;rounded=0;orthogonalLoop=1;jettySize=auto;html=1;dashed=1;startArrow=classic;startFill=1;endArrow=none;endFill=0;" edge="1" parent="1" source="ehtGAwbhDUbNyiEBxqf6-20" target="ehtGAwbhDUbNyiEBxqf6-42">
          <mxGeometry relative="1" as="geometry">
            <mxPoint x="260" y="-150" as="targetPoint" />
            <Array as="points">
              <mxPoint x="160" y="-220" />
              <mxPoint x="160" y="-95" />
            </Array>
          </mxGeometry>
        </mxCell>
        <mxCell id="ehtGAwbhDUbNyiEBxqf6-20" value="Vendedor" style="shape=umlActor;verticalLabelPosition=bottom;verticalAlign=top;html=1;outlineConnect=0;" vertex="1" parent="1">
          <mxGeometry x="90" y="-250" width="30" height="60" as="geometry" />
        </mxCell>
        <mxCell id="ehtGAwbhDUbNyiEBxqf6-25" style="edgeStyle=orthogonalEdgeStyle;rounded=0;orthogonalLoop=1;jettySize=auto;html=1;startArrow=classic;startFill=1;endArrow=none;endFill=0;dashed=1;" edge="1" parent="1" source="ehtGAwbhDUbNyiEBxqf6-23" target="ehtGAwbhDUbNyiEBxqf6-24">
          <mxGeometry relative="1" as="geometry" />
        </mxCell>
        <mxCell id="ehtGAwbhDUbNyiEBxqf6-23" value="buscar articulos" style="ellipse;whiteSpace=wrap;html=1;" vertex="1" parent="1">
          <mxGeometry x="290" y="-400" width="120" height="80" as="geometry" />
        </mxCell>
        <mxCell id="ehtGAwbhDUbNyiEBxqf6-24" value="comprar articulos" style="ellipse;whiteSpace=wrap;html=1;" vertex="1" parent="1">
          <mxGeometry x="490" y="-400" width="120" height="80" as="geometry" />
        </mxCell>
        <mxCell id="ehtGAwbhDUbNyiEBxqf6-28" style="edgeStyle=orthogonalEdgeStyle;rounded=0;orthogonalLoop=1;jettySize=auto;html=1;entryX=0;entryY=0.5;entryDx=0;entryDy=0;dashed=1;" edge="1" parent="1" source="ehtGAwbhDUbNyiEBxqf6-27" target="ehtGAwbhDUbNyiEBxqf6-29">
          <mxGeometry relative="1" as="geometry">
            <mxPoint x="510" y="-220" as="targetPoint" />
          </mxGeometry>
        </mxCell>
        <mxCell id="ehtGAwbhDUbNyiEBxqf6-27" value="vender 5 articulos" style="ellipse;whiteSpace=wrap;html=1;" vertex="1" parent="1">
          <mxGeometry x="290" y="-260" width="120" height="80" as="geometry" />
        </mxCell>
        <mxCell id="ehtGAwbhDUbNyiEBxqf6-29" value="poner articulos en venta" style="ellipse;whiteSpace=wrap;html=1;" vertex="1" parent="1">
          <mxGeometry x="490" y="-260" width="120" height="80" as="geometry" />
        </mxCell>
        <mxCell id="ehtGAwbhDUbNyiEBxqf6-30" value="&amp;lt;&amp;lt;include&amp;gt;&amp;gt;" style="text;html=1;align=center;verticalAlign=middle;resizable=0;points=[];autosize=1;strokeColor=none;fillColor=none;" vertex="1" parent="1">
          <mxGeometry x="403" y="-221" width="90" height="30" as="geometry" />
        </mxCell>
        <mxCell id="ehtGAwbhDUbNyiEBxqf6-47" style="edgeStyle=orthogonalEdgeStyle;rounded=0;orthogonalLoop=1;jettySize=auto;html=1;dashed=1;" edge="1" parent="1" source="ehtGAwbhDUbNyiEBxqf6-33" target="ehtGAwbhDUbNyiEBxqf6-45">
          <mxGeometry relative="1" as="geometry" />
        </mxCell>
        <mxCell id="ehtGAwbhDUbNyiEBxqf6-33" value="vender articulos&lt;div&gt;ilimitados&lt;/div&gt;" style="ellipse;whiteSpace=wrap;html=1;" vertex="1" parent="1">
          <mxGeometry x="490" y="-135" width="120" height="80" as="geometry" />
        </mxCell>
        <mxCell id="ehtGAwbhDUbNyiEBxqf6-39" value="Actores involucrados: Usuario, Comprador, Vendedor&lt;div&gt;Precondición: Acceder a la app&lt;/div&gt;&lt;div&gt;Flujo básico:&lt;/div&gt;&lt;div&gt;&lt;span style=&quot;white-space: pre;&quot;&gt;&#x9;&lt;/span&gt;-Usuario añade formas de pago&lt;br&gt;&lt;/div&gt;&lt;div&gt;&lt;span style=&quot;white-space: pre;&quot;&gt;&#x9;&lt;/span&gt;-Usuario se debe logear en la app&lt;br&gt;&lt;/div&gt;&lt;div&gt;&lt;span style=&quot;white-space: pre;&quot;&gt;&#x9;&lt;/span&gt;-Usuario comprador busca artículos&lt;br&gt;&lt;/div&gt;&lt;div&gt;&lt;span style=&quot;white-space: pre;&quot;&gt;&#x9;&lt;/span&gt;-Usuario comprador puede compra artículos&lt;br&gt;&lt;/div&gt;&lt;div&gt;&lt;span style=&quot;white-space: pre;&quot;&gt;&#x9;&lt;/span&gt;-Usuario vendedor vende 5 artículos máximo&lt;br&gt;&lt;/div&gt;&lt;div&gt;&lt;span style=&quot;white-space: pre;&quot;&gt;&#x9;&lt;/span&gt;-Usuario vendedor debió añadir artículos en venta&lt;br&gt;&lt;/div&gt;&lt;div&gt;Flujos alternativos: en el paso 4 el comprador no compra ningún artículo y&amp;nbsp;&lt;/div&gt;&lt;div&gt;en el paso 5 el usuario vendedor paga el premium y puede vender artículos ilimitados&lt;/div&gt;&lt;div&gt;que deberá haber puesto en venta previamente.&lt;/div&gt;&lt;div&gt;Postcondicion: Artículos puestos en venta&lt;/div&gt;" style="text;html=1;align=left;verticalAlign=middle;resizable=0;points=[];autosize=1;strokeColor=none;fillColor=none;" vertex="1" parent="1">
          <mxGeometry x="710" y="-490" width="480" height="200" as="geometry" />
        </mxCell>
        <mxCell id="ehtGAwbhDUbNyiEBxqf6-40" value="&amp;lt;&amp;lt;extend&amp;gt;&amp;gt;" style="text;html=1;align=center;verticalAlign=middle;resizable=0;points=[];autosize=1;strokeColor=none;fillColor=none;" vertex="1" parent="1">
          <mxGeometry x="410" y="-360" width="90" height="30" as="geometry" />
        </mxCell>
        <mxCell id="ehtGAwbhDUbNyiEBxqf6-44" style="edgeStyle=orthogonalEdgeStyle;rounded=0;orthogonalLoop=1;jettySize=auto;html=1;entryX=0;entryY=0.5;entryDx=0;entryDy=0;" edge="1" parent="1" source="ehtGAwbhDUbNyiEBxqf6-42" target="ehtGAwbhDUbNyiEBxqf6-33">
          <mxGeometry relative="1" as="geometry" />
        </mxCell>
        <mxCell id="ehtGAwbhDUbNyiEBxqf6-42" value="pagar premium" style="ellipse;whiteSpace=wrap;html=1;" vertex="1" parent="1">
          <mxGeometry x="290" y="-135" width="120" height="80" as="geometry" />
        </mxCell>
        <mxCell id="ehtGAwbhDUbNyiEBxqf6-43" value="&amp;lt;&amp;lt;extend&amp;gt;&amp;gt;" style="text;html=1;align=center;verticalAlign=middle;resizable=0;points=[];autosize=1;strokeColor=none;fillColor=none;" vertex="1" parent="1">
          <mxGeometry x="170" y="-100" width="90" height="30" as="geometry" />
        </mxCell>
        <mxCell id="ehtGAwbhDUbNyiEBxqf6-45" value="poner articulos en venta" style="ellipse;whiteSpace=wrap;html=1;" vertex="1" parent="1">
          <mxGeometry x="690" y="-135" width="120" height="80" as="geometry" />
        </mxCell>
        <mxCell id="ehtGAwbhDUbNyiEBxqf6-46" value="&amp;lt;&amp;lt;include&amp;gt;&amp;gt;" style="text;html=1;align=center;verticalAlign=middle;resizable=0;points=[];autosize=1;strokeColor=none;fillColor=none;" vertex="1" parent="1">
          <mxGeometry x="602" y="-100" width="90" height="30" as="geometry" />
        </mxCell>
      </root>
    </mxGraphModel>
  </diagram>
</mxfile>
